# xmcd
#
# Track frame offsets: 
#        150
#        16212
#        33600
#        48512
#        64437
#        81812
#        97162
#        114362
#        131950
#        149050
#        165787
#        183862
#        199787
#        217587
#
# Disc length: 3157 seconds
#
# Revision: 3
# Processed by: cddbd v1.5.1PL0 Copyright (c) Steve Scherf et al.
# Submitted via: ExactAudioCopy v0.95a5
#
DISCID=c50c530e,c60c530e
DTITLE=Various Artist - Charts Pur Vol. 7
DYEAR=1996
DGENRE=Pop
TTITLE0=Faithless - Insomnia
TTITLE1=Backstreet Boys - Get Down
TTITLE2=Caught In The Act - Ain´t Just Another Story
TTITLE3=U 96 - A Night To Remember
TTITLE4=Robert Miles - Fable
TTITLE5=RMB - Spring
TTITLE6=Blümchen - Boomerang
TTITLE7=Culture Beat - Take Me Away
TTITLE8=Sqeezer - Blue Jeans
TTITLE9=Captain Jack - Soldier, Soldier
TTITLE10=Flip Da Scrip - You To Me
TTITLE11=Mark Morrison - Return Of The Mack
TTITLE12=Soultrans - Can´t Take My Hands Off You
TTITLE13=Deep Blue Something - Breakfast At Tiffany´s
EXTD=
EXTT0=
EXTT1=
EXTT2=
EXTT3=
EXTT4=
EXTT5=
EXTT6=
EXTT7=
EXTT8=
EXTT9=
EXTT10=
EXTT11=
EXTT12=
EXTT13=
PLAYORDER=
